<svg width="12" height="16" viewBox="0 0 12 16" fill="none" xmlns="http://www.w3.org/2000/svg">
<path d="M6.60052 11.2973V12.6631H0.539312V11.438L3.57578 9.01118C4.07599 8.61257 4.43748 8.24523 4.66023 7.90915C4.88298 7.57306 4.99436 7.22917 4.99436 6.87745C4.99436 6.63516 4.93281 6.41729 4.80971 6.22385C4.68661 6.03041 4.51368 5.88093 4.29093 5.77541C4.07599 5.6699 3.84152 5.61714 3.5875 5.61714C3.1928 5.61714 2.82936 5.70996 2.49719 5.89558C2.16501 6.08121 1.83284 6.37528 1.50066 6.7778L0.527588 5.88093C1.34825 4.80625 2.38581 4.26891 3.64026 4.26891C4.17955 4.26891 4.66902 4.37735 5.10866 4.59424C5.54831 4.81113 5.89513 5.11497 6.14915 5.50577C6.39535 5.89656 6.51845 6.34206 6.51845 6.84228C6.51845 7.40893 6.36995 7.92966 6.07295 8.40448C5.77594 8.87929 5.28354 9.37853 4.59575 9.90219L2.86649 11.2973H6.60052Z" fill="#1F1F1F"/>
<path d="M7.4563 5.98644L9.77175 4.41545H10.9734V12.6631H9.48452V6.14471L8.06594 7.04745L7.4563 5.98644Z" fill="#1F1F1F"/>
</svg>
