<svg width="20" height="20" viewBox="0 0 20 20" fill="none" xmlns="http://www.w3.org/2000/svg">
<path d="M3.33984 9.16016C3.33984 8.35286 3.48958 7.59766 3.78906 6.89453C4.10156 6.19141 4.52148 5.57617 5.04883 5.04883C5.57617 4.52148 6.19141 4.10156 6.89453 3.78906C7.59766 3.48958 8.35286 3.33984 9.16016 3.33984C9.96745 3.33984 10.7292 3.48958 11.4453 3.78906C12.1484 4.10156 12.7637 4.52148 13.291 5.04883C13.8184 5.57617 14.2383 6.19141 14.5508 6.89453C14.8503 7.59766 15 8.35286 15 9.16016C15 9.96745 14.8503 10.7292 14.5508 11.4453C14.2383 12.1484 13.8184 12.7637 13.291 13.291C12.7637 13.8184 12.1484 14.2383 11.4453 14.5508C10.7292 14.8503 9.96745 15 9.16016 15C8.35286 15 7.59766 14.8503 6.89453 14.5508C6.19141 14.2383 5.57617 13.8184 5.04883 13.291C4.52148 12.7637 4.10156 12.1484 3.78906 11.4453C3.48958 10.7292 3.33984 9.96745 3.33984 9.16016ZM9.16016 1.66016C8.13151 1.66016 7.16146 1.86198 6.25 2.26562C5.33854 2.65625 4.54427 3.1901 3.86719 3.86719C3.1901 4.54427 2.65625 5.33854 2.26562 6.25C1.86198 7.16146 1.66016 8.13151 1.66016 9.16016C1.66016 10.2018 1.86198 11.1784 2.26562 12.0898C2.65625 13.0013 3.1901 13.7956 3.86719 14.4727C4.54427 15.1497 5.33854 15.6836 6.25 16.0742C7.16146 16.4648 8.13151 16.6602 9.16016 16.6602C10.0456 16.6602 10.8887 16.5169 11.6895 16.2305C12.4902 15.944 13.2096 15.5404 13.8477 15.0195L16.9141 18.0859C17.0703 18.2552 17.2656 18.3398 17.5 18.3398C17.7344 18.3398 17.9297 18.2552 18.0859 18.0859C18.2552 17.9297 18.3398 17.7344 18.3398 17.5C18.3398 17.2656 18.2552 17.0703 18.0859 16.9141L15.0195 13.8477C15.5404 13.2096 15.944 12.4902 16.2305 11.6895C16.5169 10.8887 16.6602 10.0456 16.6602 9.16016C16.6602 8.13151 16.4648 7.16146 16.0742 6.25C15.6836 5.33854 15.1497 4.54427 14.4727 3.86719C13.7956 3.1901 13.0013 2.65625 12.0898 2.26562C11.1784 1.86198 10.2018 1.66016 9.16016 1.66016Z" fill="#1F1F1F"/>
</svg>
