<svg width="12" height="12" viewBox="0 0 12 12" fill="none" xmlns="http://www.w3.org/2000/svg">
<path d="M1.61719 3.5039C1.70312 3.41015 1.80664 3.36327 1.92773 3.36327C2.04883 3.36327 2.15234 3.41015 2.23828 3.5039L5.97656 7.5703L9.71484 3.5039C9.80078 3.41015 9.9043 3.36327 10.0254 3.36327C10.1465 3.36327 10.2539 3.41015 10.3477 3.5039C10.4336 3.60546 10.4766 3.72069 10.4766 3.8496C10.4766 3.97851 10.4336 4.08983 10.3477 4.18358L6.38672 8.44921C6.22266 8.5664 6.05664 8.61718 5.88867 8.60155C5.7207 8.58593 5.57031 8.51952 5.4375 8.40233L1.57031 4.18358C1.54688 4.13671 1.52539 4.08593 1.50586 4.03124C1.48633 3.97655 1.47656 3.91405 1.47656 3.84374C1.47656 3.77343 1.48828 3.71093 1.51172 3.65624C1.53516 3.60155 1.57031 3.55077 1.61719 3.5039Z" fill="black"/>
</svg>
