<svg width="12" height="16" viewBox="0 0 12 16" fill="none" xmlns="http://www.w3.org/2000/svg">
<g clip-path="url(#clip0_11_3204)">
<path d="M0.216797 5.98638L2.53225 4.41539H3.73394V12.6631H2.24501V6.14465L0.826434 7.04739L0.216797 5.98638Z" fill="#1F1F1F"/>
<path d="M11.331 11.2973V12.6631H5.26978V11.4379L8.30624 9.01112C8.80646 8.61251 9.16794 8.24517 9.3907 7.90908C9.61345 7.573 9.72482 7.2291 9.72482 6.87739C9.72482 6.6351 9.66327 6.41723 9.54017 6.22379C9.41707 6.03035 9.24415 5.88087 9.0214 5.77535C8.80646 5.66984 8.57198 5.61708 8.31797 5.61708C7.92327 5.61708 7.55983 5.7099 7.22766 5.89552C6.89548 6.08115 6.56331 6.37522 6.23113 6.77774L5.25806 5.88087C6.07872 4.80619 7.11628 4.26884 8.37073 4.26884C8.91002 4.26884 9.39949 4.37729 9.83913 4.59418C10.2788 4.81107 10.6256 5.11491 10.8796 5.50571C11.1258 5.8965 11.2489 6.342 11.2489 6.84222C11.2489 7.40887 11.1004 7.9296 10.8034 8.40442C10.5064 8.87923 10.014 9.37847 9.32622 9.90213L7.59695 11.2973H11.331Z" fill="#1F1F1F"/>
</g>
<defs>
<clipPath id="clip0_11_3204">
<rect width="11.97" height="16" fill="white" transform="matrix(1 0 0 -1 0 16)"/>
</clipPath>
</defs>
</svg>
